<?xml version="1.0" encoding="utf-8"?>
<!-- Generator: Adobe Illustrator 27.0.0, SVG Export Plug-In . SVG Version: 6.00 Build 0)  -->
<!DOCTYPE svg PUBLIC "-//W3C//DTD SVG 1.1//EN" "http://www.w3.org/Graphics/SVG/1.1/DTD/svg11.dtd" [
	<!ENTITY ns_extend "http://ns.adobe.com/Extensibility/1.0/">
	<!ENTITY ns_ai "http://ns.adobe.com/AdobeIllustrator/10.0/">
	<!ENTITY ns_graphs "http://ns.adobe.com/Graphs/1.0/">
	<!ENTITY ns_vars "http://ns.adobe.com/Variables/1.0/">
	<!ENTITY ns_imrep "http://ns.adobe.com/ImageReplacement/1.0/">
	<!ENTITY ns_sfw "http://ns.adobe.com/SaveForWeb/1.0/">
	<!ENTITY ns_custom "http://ns.adobe.com/GenericCustomNamespace/1.0/">
	<!ENTITY ns_adobe_xpath "http://ns.adobe.com/XPath/1.0/">
]>
<svg version="1.1" id="レイヤー_1" xmlns:x="&ns_extend;" xmlns:i="&ns_ai;" xmlns:graph="&ns_graphs;"
	 xmlns="http://www.w3.org/2000/svg" xmlns:xlink="http://www.w3.org/1999/xlink" x="0px" y="0px" viewBox="0 0 1212.5 1212.5"
	 style="enable-background:new 0 0 1212.5 1212.5;" xml:space="preserve">
<style type="text/css">
	.st0{stroke:#231815;stroke-width:3;stroke-miterlimit:10;}
	.st1{fill:#FFFFFF;}
</style>
<metadata>
	<sfw  xmlns="&ns_sfw;">
		<slices></slices>
		<sliceSourceBounds  bottomLeftOrigin="true" height="1218.2" width="1218.2" x="-2.7" y="-2.6"></sliceSourceBounds>
	</sfw>
</metadata>
<rect x="-1.2" y="-1.6" class="st0" width="1215.2" height="1215.2"/>
<path class="st1" d="M606.1,1052.4c-182.3,0-364.7,0-547,0c-8,0-9-0.1-8.8-0.9c0.6-3,3.1-4.7,5-6.8c28.1-33.3,56.3-66.5,84.4-99.8
	c1.1-1.3,2.2-2.6,3.3-4c0.5-0.6,0.7-1.4,0.3-2.1c-0.8-1.5-1.6-3.1-2.4-4.6c-22-41.2-38.2-84.5-48.6-130c-3.6-15.9-6.5-31.9-8.6-48.1
	c-1.5-11.8-2.7-23.6-3.5-35.5c-1.4-19.4-1.2-38.7-0.6-58.1c0.3-8,1.1-16.1,1.7-24.1c0.6-8.6,1.7-17.2,2.9-25.7
	c2-13.9,4.5-27.6,7.5-41.3c7.2-32.5,17.5-64,30.8-94.5c25.4-58.5,60.2-110.8,104.7-156.5c60.1-61.8,131-106.4,212.8-133.7
	c21.5-7.2,43.4-12.8,65.6-17.1c10.7-2.1,21.5-3.8,32.4-5.2c9.7-1.2,19.4-2.1,29.2-2.9c13.4-1,26.8-1.3,40.3-1.3
	c11.9,0,23.8,0.3,35.7,1.2c9.8,0.7,19.5,1.6,29.2,2.8c37,4.7,73.2,13.2,108.4,25.7c72.7,25.8,136.8,65.5,192.1,119.4
	c59.9,58.3,103.4,127.1,130.8,206c8.2,23.6,14.5,47.7,19.2,72.2c2.7,14.3,4.8,28.7,6.4,43.2c0.7,6.5,1.1,13,1.6,19.5
	c1.5,18.6,1.4,37.2,0.9,55.8c-0.2,9.6-1.1,19.1-1.9,28.7c-0.7,8.6-1.8,17.2-2.9,25.7c-1.5,11.2-3.5,22.4-5.8,33.4
	c-7.5,35.6-18.4,70.1-33,103.4c-5.2,11.8-10.7,23.3-16.7,34.7c-0.7,1.4-1.4,2.7-2,4.1c-0.2,0.5-0.1,1.2,0.2,1.6
	c0.8,1.3,1.8,2.5,2.8,3.6c10.5,12.7,21.1,25.4,31.6,38.1c19,22.9,38,45.7,57,68.6c0.7,0.9,1.3,1.9,2,2.8c0.3,0.4-0.2,1.3-0.7,1.3
	c-0.6,0.1-1.1,0.2-1.7,0.2c-2.1,0-4.2,0-6.3,0C971.6,1052.4,788.8,1052.4,606.1,1052.4z M629.8,202.1c-12.3-0.4-24.5,0.4-36.8,1.4
	c-11.3,0.9-22.5,2.3-33.7,4.1c-16.9,2.7-33.6,6.3-50,11c-77,22.1-143.3,61.9-198.7,119.7c-52.3,54.6-88.1,118.5-107.7,191.5
	c-4.3,16.1-7.7,32.5-10,49c-1,6.8-1.9,13.7-2.5,20.6c-0.6,7.8-1.5,15.7-1.7,23.5c-0.6,17.3-0.6,34.5,0.7,51.8
	c1,13.2,2.5,26.3,4.6,39.4c3.2,20.3,8,40.2,14.1,59.9c6,19.3,13.2,38,21.9,56.2c0.6,1.2,1.2,2.4,1.9,3.5c0.2,0.4,1.2,0.5,1.5,0.2
	c0.7-0.7,1.4-1.4,2-2.1c4.6-5.4,9.2-10.8,13.8-16.2c39.2-46.3,78.4-92.5,117.5-138.8c21.6-25.5,43.1-51,64.7-76.4
	c0.9-1,1.8-2,2.7-2.9c0.3-0.3,1.2-0.3,1.6,0c0.7,0.7,1.4,1.3,2,2.1c4.1,4.8,8.2,9.7,12.2,14.5c47.7,56.6,95.4,113.3,143.2,169.9
	c4.8,5.7,9.7,11.4,14.5,17.1c0.6,0.7,1.3,1.4,2.1,2c0.2,0.2,0.9,0.2,1,0c1-0.9,1.9-1.8,2.8-2.9c14.4-17.2,28.9-34.4,43.3-51.6
	c0.6-0.7,1.2-1.5,1.7-2.3c0.4-0.6,0.4-1.5-0.1-2.1c-0.8-1.1-1.7-2.1-2.5-3.1c-12.6-15-25.2-29.9-37.8-44.9
	C559.5,626.7,501,557.1,442.4,487.6c-2-2.3-4-4.7-5.9-7c-2.2-2.6-2.2-2.9-0.2-5.4c0.2-0.3,0.5-0.6,0.7-0.9c11-13,22-26.1,33-39.1
	c0.5-0.6,1.1-1.1,1.6-1.6c0.4-0.4,1.1-0.3,1.5,0.1c0.9,1,1.8,2,2.7,3c9,10.7,18,21.4,27.1,32.1c40,47.6,80.1,95.1,120.1,142.7
	c23.7,28.2,47.4,56.4,71.2,84.5c3.6,4.3,3.4,4.1,7-0.2c21.6-25.7,43.2-51.4,64.7-77.2c46.9-55.9,93.7-111.7,140.6-167.6
	c21.7-25.9,43.4-51.7,65.1-77.6c0.9-1,1.7-2.1,2.5-3.1c0.4-0.5,0.4-1.6-0.1-2.2c-0.6-0.8-1.1-1.5-1.8-2.3
	c-28.7-35.4-62.1-65.8-100.2-90.9C823,242.6,769.7,221,712.1,210c-15.5-2.9-31-5.1-46.7-6.3C653.7,202.4,641.8,201.7,629.8,202.1z
	 M1070.7,639.6c-0.2-4.8-0.6-12.6-0.9-20.5c-0.5-13.6-2-27.2-4-40.6c-2.2-15-5.2-29.8-8.9-44.5c-6.5-25.3-15.1-49.9-26-73.7
	c-0.6-1.4-1.4-2.7-2.1-4.1c-0.2-0.5-1.2-0.6-1.5-0.3c-0.9,1-1.9,1.9-2.7,2.9c-11.8,14.1-23.7,28.2-35.5,42.3
	c-40.9,48.8-81.9,97.6-122.8,146.4c-34.2,40.7-68.3,81.4-102.4,122.2c-4,4.8-4,4,0.1,8.9c24,28.5,47.9,57,71.9,85.4
	c0.6,0.7,1.3,1.4,2,2.1c0.4,0.4,1.2,0.4,1.6,0.1c1-1.1,2.1-2.2,3.1-3.4c26-31.2,52.1-62.5,78.1-93.7c4.7-5.6,3.9-5.3,8.5,0.1
	c0.5,0.6,1,1.2,1.5,1.8c25,30.1,50,60.2,75.1,90.3c0.9,1,1.7,2,2.6,3c0.3,0.3,0.6,0.6,0.9,0.7c0.3,0.1,0.9,0.1,1.1-0.1
	c1-1.4,2-2.8,2.9-4.3c9.9-17.4,18.5-35.3,26-53.8c10.3-25.7,18.1-52.2,23.4-79.3c2.9-14.9,5-29.9,6.3-45
	C1069.9,669.1,1070.6,655.9,1070.7,639.6z M800.1,913.2c-0.1-0.4,0-0.8-0.2-1.1c-1-1.4-2.1-2.7-3.2-4
	c-11.1-13.2-22.2-26.4-33.3-39.6c-12.5-14.8-24.9-29.6-37.4-44.4c-1-1.2-2.1-2.3-3.2-3.3c-0.2-0.2-0.8-0.2-1-0.1
	c-0.9,0.7-1.7,1.5-2.4,2.4c-7.4,8.8-14.8,17.6-22.2,26.4c-7.4,8.8-14.8,17.6-22.2,26.5c-1.5,1.8-1.5,2.3-0.2,4
	c1.1,1.3,2.2,2.7,3.3,4c12.8,15.1,25.6,30.1,38.4,45.2c10.6,12.4,21.1,24.8,31.7,37.3c1,1.2,2,2.3,3.1,3.4c0.6,0.7,1.5,0.7,2,0.1
	c0.5-0.6,1.1-1.1,1.6-1.7c14.3-17.1,28.5-34.1,42.8-51.2c0.7-0.9,1.5-1.8,2.1-2.7C799.8,913.9,799.9,913.5,800.1,913.2z"/>
</svg>
