<?xml version="1.0" encoding="UTF-8" standalone="no"?>
<svg
   width="64"
   height="64"
   version="1"
   id="svg16"
   xmlns="http://www.w3.org/2000/svg"
   xmlns:svg="http://www.w3.org/2000/svg">
  <defs
     id="defs20" />
  <g
     id="layer3"
     style="display:inline">
    <rect
       style="opacity:0.2;stroke-width:1"
       width="42"
       height="32"
       x="-56"
       y="-48"
       rx="2.5"
       ry="2.5"
       transform="matrix(0,-1,-1,0,0,0)"
       id="rect2" />
    <rect
       style="fill:#8e8e8e;stroke-width:1"
       width="42"
       height="32"
       x="-55"
       y="-48"
       rx="2.5"
       ry="2.5"
       transform="matrix(0,-1,-1,0,0,0)"
       id="rect4" />
    <rect
       style="opacity:0.2;stroke-width:1"
       width="40"
       height="52"
       x="-50"
       y="-58"
       rx="2.5"
       ry="2.5"
       transform="matrix(0,-1,-1,0,0,0)"
       id="rect6" />
    <rect
       style="fill:#4f4f4f;stroke-width:1"
       width="40"
       height="52"
       x="-49"
       y="-58"
       rx="2.5"
       ry="2.5"
       transform="matrix(0,-1,-1,0,0,0)"
       id="rect8" />
    <rect
       style="opacity:1;fill:#6b9fff;fill-opacity:1;stroke-width:1"
       width="32"
       height="44"
       x="-45"
       y="-54"
       rx="0"
       ry="0"
       transform="matrix(0,-1,-1,0,0,0)"
       id="rect10" />
    <path
       style="opacity:0.1;fill:#ffffff;stroke-width:1"
       d="M 8.5,9 C 7.115,9 6,10.115 6,11.5 v 1 C 6,11.115 7.115,10 8.5,10 h 47 c 1.385,0 2.5,1.115 2.5,2.5 v -1 C 58,10.115 56.885,9 55.5,9 Z"
       id="path12" />
    <rect
       style="opacity:0.1;fill:#ffffff;stroke-width:1"
       width="44"
       height="1"
       x="10"
       y="45"
       id="rect14" />
  </g>
  <g
     id="layer2"
     style="display:inline">
    <rect
       fill="#30a3db"
       width="28.124996"
       height="28.124996"
       x="-42.97047"
       y="-47.04871"
       rx="14.062497"
       ry="14.062497"
       transform="matrix(0,-1,-1,0,0,0)"
       id="rect2-3"
       style="display:inline;opacity:0;stroke:#ffffff;stroke-width:1.5;stroke-miterlimit:4;stroke-dasharray:none;stroke-opacity:1" />
    <circle
       style="display:inline;opacity:0.2;stroke-width:1"
       cx="47"
       cy="46.799671"
       id="circle18"
       r="16" />
    <circle
       style="display:inline;fill:#002643;fill-opacity:1;stroke:#ffffff;stroke-width:0;stroke-miterlimit:4;stroke-dasharray:none;stroke-opacity:1"
       cx="47"
       cy="46"
       id="circle20"
       r="16" />
  </g>
  <g
     id="layer4"
     style="display:inline">
    <g
       id="g17147"
       transform="matrix(0.125,0,0,0.125,0.46875001,1.5625)">
      <path
         id="path1090"
         d="m 287.34511,330.83432 c -2.52047,7.97454 -3.83887,16.40476 -3.83887,25.17675 0,21.53125 8.14304,41.20178 21.55968,56.23947 l 48.16027,-81.41622 z"
         class="st1"
         style="fill:#ffffff;fill-opacity:1;stroke:#002643;stroke-width:6;stroke-miterlimit:4;stroke-dasharray:none;stroke-opacity:1" />
      <path
         id="path1092"
         d="m 306.69452,414.03532 c 15.9371,16.86045 38.73762,27.45519 64.0586,27.45519 5.70013,0 11.24515,-0.53164 16.63507,-1.55693 l -47.69496,-81.64407 z"
         class="st1"
         style="fill:#ffffff;fill-opacity:1;stroke:#002643;stroke-width:6;stroke-miterlimit:4;stroke-dasharray:none;stroke-opacity:1" />
      <path
         id="path1094"
         d="m 434.30762,297.49317 c -15.89832,-16.55666 -38.50495,-26.92356 -63.5545,-26.92356 -5.77768,0 -11.43904,0.56961 -16.94528,1.63288 l 47.85006,81.34027 z"
         class="st1"
         style="fill:#ffffff;fill-opacity:1;stroke:#002643;stroke-width:6;stroke-miterlimit:4;stroke-dasharray:none;stroke-opacity:1" />
      <path
         id="path1096"
         d="m 351.44248,272.69615 c -29.70272,6.5695 -53.66653,27.98683 -63.32185,55.85973 h 96.16545 z"
         class="st1"
         style="fill:#ffffff;fill-opacity:1;stroke:#002643;stroke-width:6;stroke-miterlimit:4;stroke-dasharray:none;stroke-opacity:1" />
      <path
         id="path1098"
         d="m 454.16113,381.18782 c 2.52047,-7.97453 3.83886,-16.40476 3.83886,-25.17675 0,-21.79706 -8.33692,-41.65746 -22.02499,-56.7711 l -47.69495,81.94785 z"
         class="st1"
         style="fill:#ffffff;fill-opacity:1;stroke:#002643;stroke-width:6;stroke-miterlimit:4;stroke-dasharray:none;stroke-opacity:1" />
      <path
         id="path1100"
         d="m 389.79233,439.40194 c 29.85781,-6.49355 53.93795,-27.98683 63.63205,-55.93568 h -96.32055 z"
         class="st1"
         style="fill:#ffffff;fill-opacity:1;stroke:#002643;stroke-width:6;stroke-miterlimit:4;stroke-dasharray:none;stroke-opacity:1" />
    </g>
  </g>
</svg>
