<?xml version="1.0" encoding="UTF-8" standalone="no"?>
<svg
   xmlns:dc="http://purl.org/dc/elements/1.1/"
   xmlns:cc="http://creativecommons.org/ns#"
   xmlns:rdf="http://www.w3.org/1999/02/22-rdf-syntax-ns#"
   xmlns:svg="http://www.w3.org/2000/svg"
   xmlns="http://www.w3.org/2000/svg"
   xmlns:sodipodi="http://sodipodi.sourceforge.net/DTD/sodipodi-0.dtd"
   xmlns:inkscape="http://www.inkscape.org/namespaces/inkscape"
   width="48"
   height="48"
   version="1.1"
   id="svg16"
   sodipodi:docname="mx-snapshot8.svg"
   inkscape:version="0.92.4 (5da689c313, 2019-01-14)">
  <metadata
     id="metadata22">
    <rdf:RDF>
      <cc:Work
         rdf:about="">
        <dc:format>image/svg+xml</dc:format>
        <dc:type
           rdf:resource="http://purl.org/dc/dcmitype/StillImage" />
        <dc:title></dc:title>
      </cc:Work>
    </rdf:RDF>
  </metadata>
  <defs
     id="defs20" />
  <sodipodi:namedview
     pagecolor="#ffffff"
     bordercolor="#666666"
     borderopacity="1"
     objecttolerance="10"
     gridtolerance="10"
     guidetolerance="10"
     inkscape:pageopacity="0"
     inkscape:pageshadow="2"
     inkscape:window-width="1876"
     inkscape:window-height="1054"
     id="namedview18"
     showgrid="false"
     inkscape:zoom="4.9166667"
     inkscape:cx="93.135054"
     inkscape:cy="-20.974578"
     inkscape:window-x="44"
     inkscape:window-y="0"
     inkscape:window-maximized="1"
     inkscape:current-layer="layer1" />
  <rect
     style="opacity:0.2"
     width="24"
     height="32"
     x="12"
     y="11"
     rx="2"
     ry="2"
     id="rect2" />
  <rect
     width="24"
     height="32"
     x="12"
     y="10"
     rx="2"
     ry="2"
     style="fill:#8e8e8e"
     id="rect4" />
  <rect
     style="opacity:0.2"
     width="40"
     height="32"
     x="4"
     y="7"
     rx="2"
     ry="2"
     id="rect6" />
  <rect
     style="fill:#4f4f4f"
     width="40"
     height="32"
     x="4"
     y="6"
     rx="2"
     ry="2"
     id="rect8" />
  <rect
     style="fill:#00ccff"
     width="34"
     height="26"
     x="7"
     y="9"
     rx="0"
     ry="0"
     id="rect10" />
  <rect
     style="opacity:0.1;fill:#ffffff"
     width="34"
     height="1"
     x="7"
     y="35"
     id="rect12" />
  <path
     style="fill:#ffffff;opacity:0.1"
     d="M 6 6 C 4.892 6 4 6.892 4 8 L 4 9 C 4 7.892 4.892 7 6 7 L 42 7 C 43.108 7 44 7.892 44 9 L 44 8 C 44 6.892 43.108 6 42 6 L 6 6 z"
     id="path14" />
  <g
     inkscape:groupmode="layer"
     id="layer1"
     inkscape:label="Layer 1">
    <g
       id="g1171"
       transform="matrix(0.050088,0,0,0.04905152,12.817321,11.069136)"
       inkscape:transform-center-x="-2.0338983"
       inkscape:transform-center-y="-0.40677966">
      <polygon
         id="polygon1088"
         points="186.3,157 266.3,157 306.3,226.3 266.3,295.6 186.3,295.6 146.3,226.3 "
         class="st0"
         style="fill:#ffffff" />
      <path
         id="path1090"
         d="m 11.2,160 c -6.5,21 -9.9,43.2 -9.9,66.3 0,56.7 21,108.5 55.6,148.1 L 181.1,160 Z"
         class="st1"
         inkscape:connector-curvature="0"
         style="fill:#231f20" />
      <path
         id="path1092"
         d="m 61.1,379.1 c 41.1,44.4 99.9,72.3 165.2,72.3 14.7,0 29,-1.4 42.9,-4.1 l -123,-215 z"
         class="st1"
         inkscape:connector-curvature="0"
         style="fill:#231f20" />
      <path
         id="path1094"
         d="M 390.2,72.2 C 349.2,28.6 290.9,1.3 226.3,1.3 211.4,1.3 196.8,2.8 182.6,5.6 L 306,219.8 Z"
         class="st1"
         inkscape:connector-curvature="0"
         style="fill:#231f20" />
      <path
         id="path1096"
         d="M 176.5,6.9 C 99.9,24.2 38.1,80.6 13.2,154 h 248 z"
         class="st1"
         inkscape:connector-curvature="0"
         style="fill:#231f20" />
      <path
         id="path1098"
         d="m 441.4,292.6 c 6.5,-21 9.9,-43.2 9.9,-66.3 0,-57.4 -21.5,-109.7 -56.8,-149.5 l -123,215.8 z"
         class="st1"
         inkscape:connector-curvature="0"
         style="fill:#231f20" />
      <path
         id="path1100"
         d="m 275.4,445.9 c 77,-17.1 139.1,-73.7 164.1,-147.3 H 191.1 Z"
         class="st1"
         inkscape:connector-curvature="0"
         style="fill:#231f20" />
      <path
         id="path1102"
         d="m 179.3,-0.2 -5.2,3 2.3,4.1 c 2,-0.5 4.1,-0.9 6.2,-1.3 z"
         class="st0"
         inkscape:connector-curvature="0"
         style="fill:#ffffff" />
      <path
         id="path1104"
         d="m 266.3,154 v 6 h -1.6 l 37.9,65.9 3.4,-6 L 182.6,5.6 c -2.1,0.4 -4.1,0.8 -6.2,1.3 L 261.2,154 Z"
         class="st0"
         inkscape:connector-curvature="0"
         style="fill:#ffffff" />
      <path
         id="path1106"
         d="m -12.9,154 v 6 h 24.2 c 0.6,-2 1.3,-4 1.9,-6 z"
         class="st0"
         inkscape:connector-curvature="0"
         style="fill:#ffffff" />
      <path
         id="path1108"
         d="m 183.7,155.5 5.2,3 -0.9,1.5 h 76.6 l -3.5,-6 h -248 c -0.7,2 -1.3,4 -1.9,6 h 169.9 z"
         class="st0"
         inkscape:connector-curvature="0"
         style="fill:#ffffff" />
      <polygon
         id="polygon1110"
         points="266.3,154 261.2,154 264.7,160 266.3,160 "
         class="st0"
         style="fill:#ffffff" />
      <path
         id="path1112"
         d="m 50.9,384.8 5.2,3 5.1,-8.8 c -1.4,-1.5 -2.8,-3.1 -4.2,-4.7 z"
         class="st0"
         inkscape:connector-curvature="0"
         style="fill:#ffffff" />
      <path
         id="path1114"
         d="m 143.7,227.8 5.2,-3 0.8,1.4 L 188,160 h -6.9 L 56.9,374.4 c 1.4,1.6 2.8,3.1 4.2,4.7 l 85.1,-146.9 z"
         class="st0"
         inkscape:connector-curvature="0"
         style="fill:#ffffff" />
      <polygon
         id="polygon1116"
         points="183.7,155.5 181.1,160 188,160 188.9,158.5 "
         class="st0"
         style="fill:#ffffff" />
      <path
         id="path1118"
         d="m 272.4,452.8 5.2,-3 -2.2,-3.9 c -2,0.5 -4.1,0.9 -6.2,1.3 z"
         class="st0"
         inkscape:connector-curvature="0"
         style="fill:#ffffff" />
      <path
         id="path1120"
         d="m 186.3,298.6 v -6 h 1.4 l -38,-66.4 -3.5,6 123,215 c 2.1,-0.4 4.1,-0.8 6.2,-1.3 L 191.1,298.6 Z"
         class="st0"
         inkscape:connector-curvature="0"
         style="fill:#ffffff" />
      <polygon
         id="polygon1122"
         points="143.7,227.8 146.2,232.2 149.7,226.2 148.9,224.8 "
         class="st0"
         style="fill:#ffffff" />
      <path
         id="path1124"
         d="m 439.4,298.6 h 11.9 v -6 h -9.9 c -0.6,2 -1.3,4 -2,6 z"
         class="st0"
         inkscape:connector-curvature="0"
         style="fill:#ffffff" />
      <path
         id="path1126"
         d="m 271.5,292.6 -2.6,4.5 -5.2,-3 0.9,-1.5 h -76.9 l 3.4,6 h 248.3 c 0.7,-2 1.3,-4 1.9,-6 z"
         class="st0"
         inkscape:connector-curvature="0"
         style="fill:#ffffff" />
      <polygon
         id="polygon1128"
         points="186.3,298.6 191.1,298.6 187.7,292.6 186.3,292.6 "
         class="st0"
         style="fill:#ffffff" />
      <path
         id="path1130"
         d="m 400,67.1 -5.2,-3 -4.6,8.1 c 1.4,1.5 2.9,3.1 4.3,4.7 z"
         class="st0"
         inkscape:connector-curvature="0"
         style="fill:#ffffff" />
      <path
         id="path1132"
         d="m 308.9,224.8 -5.2,3 -1.1,-1.9 -38,66.7 h 6.9 l 123,-215.8 c -1.4,-1.6 -2.8,-3.1 -4.3,-4.7 L 306,219.8 Z"
         class="st0"
         inkscape:connector-curvature="0"
         style="fill:#ffffff" />
      <polygon
         id="polygon1134"
         points="308.9,224.8 306,219.8 302.6,225.9 303.7,227.8 "
         class="st0"
         style="fill:#ffffff" />
      <polygon
         id="polygon1136"
         points="263.7,294.1 268.9,297.1 271.5,292.6 264.6,292.6 "
         class="st0"
         style="fill:#ffffff" />
    </g>
  </g>
  <style
     id="style1086"
     type="text/css">
	.st0{fill:#FFFFFF;}
	.st1{fill:#231F20;}
</style>
</svg>
